<svg width="273" height="272" viewBox="0 0 273 272" fill="none" xmlns="http://www.w3.org/2000/svg">
    <defs>
        <linearGradient id="gradient" x1="0%" y1="0%" x2="100%" y2="0%">
            <stop offset="0%" stop-color="rgba(116,132,245,1)" />
            <stop offset="15%" stop-color="rgba(111,140,243,1)" />
            <stop offset="100%" stop-color="rgba(65,219,221,1)" />
        </linearGradient>
    </defs>
    <path d="M227.367 226.803C230.572 233.227 238.378 235.838 244.803 232.633C251.227 229.428 253.838 221.622 250.633 215.197L227.367 226.803ZM135.5 13.5L147.133 7.69744C144.93 3.27987 140.414 0.491526 135.478 0.500019C130.541 0.508512 126.035 3.31238 123.847 7.7375L135.5 13.5ZM78.8469 98.7375C75.6644 105.173 78.3017 112.971 84.7375 116.153C91.1733 119.336 98.9705 116.698 102.153 110.262L78.8469 98.7375ZM259.5 154.5C266.68 154.5 272.5 148.68 272.5 141.5C272.5 134.32 266.68 128.5 259.5 128.5V154.5ZM65 141.5V128.5C64.5114 128.5 64.0232 128.528 63.5377 128.583L65 141.5ZM65 258.5L63.1976 271.374C63.7948 271.458 64.397 271.5 65 271.5V258.5ZM259.5 271.5C266.68 271.5 272.5 265.68 272.5 258.5C272.5 251.32 266.68 245.5 259.5 245.5V271.5ZM61.5 200.5C61.5 207.68 67.3203 213.5 74.5 213.5C81.6797 213.5 87.5 207.68 87.5 200.5H61.5ZM250.633 215.197L210.979 135.697L187.713 147.303L227.367 226.803L250.633 215.197ZM210.979 135.697L147.133 7.69744L123.867 19.3026L187.713 147.303L210.979 135.697ZM123.847 7.7375L78.8469 98.7375L102.153 110.262L147.153 19.2625L123.847 7.7375ZM259.5 128.5H199.346V154.5H259.5V128.5ZM199.346 128.5H65V154.5H199.346V128.5ZM63.5377 128.583C52.6796 129.812 36.9627 134.694 23.833 145.68C10.2028 157.084 -0.218052 174.794 0.505431 199.875L26.4946 199.125C26.0181 182.606 32.514 172.316 40.517 165.62C49.0207 158.506 59.6538 155.188 66.4624 154.417L63.5377 128.583ZM0.505431 199.875C1.21787 224.573 11.7458 242.073 24.9172 253.533C37.7033 264.657 52.7139 269.907 63.1976 271.374L66.8025 245.626C60.6195 244.76 50.4801 241.31 41.9828 233.917C33.871 226.86 26.9822 216.027 26.4946 199.125L0.505431 199.875ZM65 271.5H259.5V245.5H65V271.5ZM87.5 200.5V185.5H61.5V200.5H87.5ZM74.5 198.5C75.1662 198.5 75.7511 198.768 76.0571 199.047C76.1822 199.161 76.2638 199.276 76.3252 199.414C76.382 199.543 76.5 199.866 76.5 200.5H102.5C102.5 182.708 88.0143 172.5 74.5 172.5V198.5ZM76.5 200.5C76.5 201.259 76.365 201.653 76.3038 201.798C76.2431 201.942 76.1868 202.006 76.1376 202.052C76.0364 202.146 75.5579 202.5 74.5 202.5V228.5C81.4421 228.5 88.4636 226.104 93.8624 221.073C99.4024 215.911 102.5 208.645 102.5 200.5H76.5ZM74.5 202.5C73.6502 202.5 73.221 202.211 73.0049 201.995C72.7888 201.779 72.5 201.35 72.5 200.5H46.5C46.5 216.18 58.8203 228.5 74.5 228.5V202.5ZM72.5 200.5C72.5 200.088 72.579 199.839 72.6497 199.681C72.7282 199.507 72.8557 199.317 73.0576 199.129C73.532 198.686 74.1361 198.5 74.5 198.5V172.5C60.6796 172.5 46.5 183.49 46.5 200.5H72.5Z" fill="url(#gradient)"/>
</svg>
