<svg width="650" height="411" viewBox="0 0 650 411" fill="none" xmlns="http://www.w3.org/2000/svg">
<path d="M559 0H87.5C17.5 0 0 45.21 0 102.75V308.25C0 365.79 17.5 411 87.5 411H559C631 411 650 362 650 308.25V102.75C650 45.21 629 0 559 0Z" fill="#01A1FD"/>
<path d="M363.241 85.2917L242.748 125.323C161.751 152.411 161.751 196.579 242.748 223.534L278.509 235.41L290.384 271.171C317.339 352.168 361.64 352.168 388.595 271.171L428.759 150.81C446.64 96.7673 417.284 67.2776 363.241 85.2917ZM367.511 157.081L316.805 208.055C314.803 210.056 312.268 210.991 309.733 210.991C307.198 210.991 304.662 210.056 302.661 208.055C298.791 204.185 298.791 197.78 302.661 193.91L353.367 142.937C357.237 139.067 363.642 139.067 367.511 142.937C371.381 146.807 371.381 153.212 367.511 157.081Z" fill="white"/>
</svg>
